<svg preserveAspectRatio="none" overflow="visible" style="display: block;" width="16.767" height="20.3445" viewBox="0 0 16.767 20.3445" fill="none" xmlns="http://www.w3.org/2000/svg">
<path id="Vector" d="M9.22135e-06 18.5287V1.818C9.22135e-06 1.266 0.181508 0.825 0.544508 0.495C0.907508 0.165 1.33201 0 1.81801 0C1.97701 0 2.13751 0.0209997 2.29951 0.0629997C2.46301 0.1035 2.62426 0.16575 2.78326 0.24975L15.9278 8.649C16.2068 8.844 16.4168 9.0675 16.5578 9.3195C16.6973 9.57 16.767 9.85425 16.767 10.1722C16.767 10.4902 16.6973 10.7745 16.5578 11.025C16.4183 11.2755 16.2083 11.499 15.9278 11.6955L2.78101 20.0947C2.62351 20.1772 2.46301 20.2395 2.29951 20.2815C2.13751 20.3235 1.97701 20.3445 1.81801 20.3445C1.33351 20.3445 0.909008 20.1795 0.544508 19.8495C0.180008 19.5195 -0.00149078 19.0792 9.22135e-06 18.5287Z" fill="#3D3F42"/>
</svg>
